<?xml version="1.0" encoding="UTF-8"?>
<svg className="svg" height="100%" viewBox="0 0 512 512" fill="currentColor" >
<path fill-rule="evenodd" clip-rule="evenodd" d="M512 0H0V512H512V0ZM164.518 292.949H138.682C130.919 292.949 125.461 291.372 122.307 288.219C119.154 284.822 117.577 279.243 117.577 271.48V160.496C117.577 152.733 119.154 147.275 122.307 144.121C125.461 140.725 130.919 139.027 138.682 139.027H164.518C172.281 139.027 177.739 140.725 180.892 144.121C184.289 147.275 185.987 152.733 185.987 160.496V271.48C185.987 279.243 184.289 284.822 180.892 288.219C177.739 291.372 172.281 292.949 164.518 292.949ZM179.5 400.17H211.095C223.024 400.17 227.672 400.323 229.374 400.379C230.074 400.402 230.276 400.409 230.28 400.382C230.282 400.371 230.252 400.354 230.21 400.331C230.144 400.295 230.05 400.243 230 400.17C226.25 394.67 221.5 387.682 211.095 371.911L187.806 331.521C201.876 328.852 212.671 322.545 220.192 312.599C227.954 302.653 231.836 289.674 231.836 273.663V158.313C231.836 139.148 226.62 124.472 216.189 114.283C205.758 104.094 190.96 99 171.795 99H131.041C111.876 99 97.0782 104.094 86.6469 114.283C76.2156 124.472 71 139.148 71 158.313V273.663C71 292.828 76.2156 307.504 86.6469 317.693C97.0782 327.882 111.876 332.976 131.041 332.976H140.865L164.518 373.731C165.439 375.343 166.927 378.016 168.643 381.095L168.649 381.107L168.652 381.113C172.355 387.76 177.11 396.298 179.5 400.17ZM286.54 332.976H317.47C322.565 332.976 325.112 330.429 325.112 325.335V250.739C325.112 248.07 326.567 246.736 329.478 246.736H353.859L390.247 325.335C391.46 328.488 393.037 330.55 394.977 331.521C396.918 332.491 400.072 332.976 404.438 332.976H433.913C440.22 332.976 442.282 330.065 440.099 324.243L401.163 243.097V241.642C422.754 232.666 433.549 214.472 433.549 187.059V158.677C433.549 139.755 428.212 125.078 417.538 114.647C406.864 104.216 392.066 99 373.144 99H286.54C281.446 99 278.899 101.547 278.899 106.642V325.335C278.899 330.429 281.446 332.976 286.54 332.976ZM364.775 209.62H329.115C326.446 209.62 325.112 208.286 325.112 205.617V143.03C325.112 140.361 326.446 139.027 329.115 139.027H364.775C372.538 139.027 378.239 140.725 381.878 144.121C385.516 147.518 387.336 152.976 387.336 160.496V188.879C387.336 196.156 385.516 201.493 381.878 204.89C378.239 208.043 372.538 209.62 364.775 209.62Z" fill="currentColor"/>
</svg>
